<svg xmlns="http://www.w3.org/2000/svg" viewBox="0 0 240 240" role="img" aria-labelledby="title desc">
  <title id="title">1. FC TSG Koenigstein Logo</title>
  <desc id="desc">Rundelogo in Rot, Weiss und Gruen fuer 1. FC TSG Koenigstein</desc>
  <defs>
    <clipPath id="circleClip">
      <circle cx="120" cy="120" r="108" />
    </clipPath>
  </defs>
  <circle cx="120" cy="120" r="115" fill="#ffffff" />
  <circle cx="120" cy="120" r="108" fill="#d8072e" />
  <g clip-path="url(#circleClip)">
    <path d="M126 12h102v216H126z" fill="#08714f" />
    <path d="M-8 119 119 33l129 86-129 88z" fill="#ffffff" opacity=".95" />
    <path d="M20 76c31-22 63-34 101-34 42 0 76 15 106 38v-78H20z" fill="#d8072e" />
    <path d="M120 32v176" stroke="#ffffff" stroke-width="7" />
    <path d="M33 125h174" stroke="#ffffff" stroke-width="7" />
    <path d="M124 74c24 0 48 10 65 28-17 19-41 31-65 31z" fill="#08714f" />
    <path d="M116 74c-25 0-48 10-66 28 18 19 41 31 66 31z" fill="#d8072e" />
    <path d="M51 148c20 23 41 36 65 40v-55c-22 0-45 5-65 15z" fill="#d8072e" />
    <path d="M189 148c-20 23-41 36-65 40v-55c22 0 45 5 65 15z" fill="#08714f" />
  </g>
  <circle cx="120" cy="120" r="107" fill="none" stroke="#ffffff" stroke-width="10" />
  <circle cx="120" cy="120" r="115" fill="none" stroke="#d8072e" stroke-width="7" />
  <path id="topArc" d="M45 61a100 100 0 0 1 150 0" fill="none" />
  <path id="bottomArc" d="M194 178a100 100 0 0 1-148 0" fill="none" />
  <text font-family="Arial, Helvetica, sans-serif" font-size="16" font-weight="800" fill="#ffffff">
    <textPath href="#topArc" startOffset="50%" text-anchor="middle">1. FC - TSG</textPath>
  </text>
  <text font-family="Arial, Helvetica, sans-serif" font-size="14" font-weight="900" fill="#ffffff">
    <textPath href="#bottomArc" startOffset="50%" text-anchor="middle">KOENIGSTEIN</textPath>
  </text>
  <text x="75" y="108" transform="rotate(-18 75 108)" font-family="Arial, Helvetica, sans-serif" font-size="13" font-weight="900" fill="#ffffff">1. FC</text>
  <text x="147" y="108" transform="rotate(18 147 108)" font-family="Arial, Helvetica, sans-serif" font-size="13" font-weight="900" fill="#ffffff">TSG</text>
</svg>
